<?xml version="1.0" standalone="no"?>
<!DOCTYPE svg PUBLIC "-//W3C//DTD SVG 20010904//EN"
 "http://www.w3.org/TR/2001/REC-SVG-20010904/DTD/svg10.dtd">
<svg version="1.0" xmlns="http://www.w3.org/2000/svg"
 width="1024.000000pt" height="1024.000000pt" viewBox="0 0 1024.000000 1024.000000"
 preserveAspectRatio="xMidYMid meet">

<g transform="translate(0.000000,1024.000000) scale(0.100000,-0.100000)"
fill="#000000" stroke="none">
<path d="M1375 8860 l-1180 -1180 1280 -1280 1280 -1280 -1280 -1280 -1280
-1280 1183 -1182 1182 -1183 1280 1280 1280 1280 1280 -1280 1280 -1280 1182
1183 1183 1182 -1280 1280 -1280 1280 1280 1280 1280 1280 -1183 1182 -1182
1183 -1280 -1280 -1280 -1280 -1278 1278 c-702 702 -1279 1277 -1282 1277 -3
0 -536 -531 -1185 -1180z m2467 -997 l1278 -1278 1280 1280 1280 1280 732
-733 733 -732 -1280 -1280 -1280 -1280 1280 -1280 1280 -1280 -733 -732 -732
-733 -1280 1280 -1280 1280 -1280 -1280 -1280 -1280 -732 733 -733 732 1280
1280 1280 1280 -1280 1280 -1280 1280 730 730 c401 401 732 730 735 730 3 0
580 -575 1282 -1277z"/>
</g>
</svg>
