<svg width="133" height="133" viewBox="0 0 133 133" fill="none" xmlns="http://www.w3.org/2000/svg">
<path d="M32.8242 71.4311L36.0427 64.0708H34.4071V62.1978H43.5745L47.5844 71.4311H44.023L43.0205 69.1228H37.4013L36.3989 71.4311H32.8242ZM38.2192 67.2497H42.2027L40.8045 64.0708H39.6174L38.2192 67.2497ZM47.8473 64.0708V62.1978H52.3321L55.4978 65.0337L58.5316 62.1978H62.8186L57.8721 66.8144L60.9059 69.5581H62.8845V71.4311H58.3997L55.234 68.5952L52.2002 71.4311H47.9132L52.8597 66.8144L49.8259 64.0708H47.8473ZM63.144 64.0708V62.1978H68.5522V71.4311H65.1094V64.0708H63.144ZM71.1873 71.4311V62.1978H84.8923V71.4311H71.1873ZM74.63 69.5581H81.4496V64.0708H74.63V69.5581ZM87.4018 71.4311V68.3973L90.8445 68.8986V69.5581H97.5189V68.3973L87.4018 66.8013V62.1978H100.962V65.4031L97.5189 64.8754V64.0708H90.8445V65.3239L100.962 66.92V71.4311H87.4018Z" fill="white"/>
<g filter="url(#filter0_d)">
<path d="M66.9182 117.756C95.0522 117.756 117.859 94.9485 117.859 66.8144C117.859 38.6804 95.0522 15.8733 66.9182 15.8733C38.7842 15.8733 15.9771 38.6804 15.9771 66.8144C15.9771 94.9485 38.7842 117.756 66.9182 117.756Z" stroke="#FEFEFF" stroke-width="20"/>
</g>
<defs>
<filter id="filter0_d" x="0.977051" y="0.873291" width="131.882" height="131.882" filterUnits="userSpaceOnUse" color-interpolation-filters="sRGB">
<feFlood flood-opacity="0" result="BackgroundImageFix"/>
<feColorMatrix in="SourceAlpha" type="matrix" values="0 0 0 0 0 0 0 0 0 0 0 0 0 0 0 0 0 0 127 0"/>
<feOffset/>
<feGaussianBlur stdDeviation="2.5"/>
<feColorMatrix type="matrix" values="0 0 0 0 1 0 0 0 0 1 0 0 0 0 1 0 0 0 0.5 0"/>
<feBlend mode="normal" in2="BackgroundImageFix" result="effect1_dropShadow"/>
<feBlend mode="normal" in="SourceGraphic" in2="effect1_dropShadow" result="shape"/>
</filter>
</defs>
</svg>
